<svg width="75" height="75" viewBox="0 0 75 75" fill="none" xmlns="http://www.w3.org/2000/svg">
<g filter="url(#filter0_d_0_308)">
<rect x="5.50018" y="1.99997" width="64" height="64" rx="8" fill="#3182CE"/>
</g>
<path d="M48.179 24.6767C47.1419 23.5019 45.2649 22.9986 42.8637 22.9986H35.8951C35.4043 22.9986 34.9872 23.3531 34.9093 23.8328L32.0077 42.0898C31.9507 42.4499 32.2315 42.7752 32.5986 42.7752H36.9004L37.9807 35.9763L37.9473 36.1904C38.0238 35.7107 38.4395 35.3562 38.9303 35.3562H40.9742C44.991 35.3562 48.1346 33.7378 49.0536 29.0564C49.0814 28.9174 49.1245 28.6504 49.1245 28.6504C49.3859 26.918 49.1231 25.7432 48.179 24.6767Z" fill="white"/>
<defs>
<filter id="filter0_d_0_308" x="0.000183105" y="-2.88486e-05" width="75" height="75" filterUnits="userSpaceOnUse" color-interpolation-filters="sRGB">
<feFlood flood-opacity="0" result="BackgroundImageFix"/>
<feColorMatrix in="SourceAlpha" type="matrix" values="0 0 0 0 0 0 0 0 0 0 0 0 0 0 0 0 0 0 127 0" result="hardAlpha"/>
<feOffset dy="3.5"/>
<feGaussianBlur stdDeviation="2.75"/>
<feColorMatrix type="matrix" values="0 0 0 0 0 0 0 0 0 0 0 0 0 0 0 0 0 0 0.02 0"/>
<feBlend mode="normal" in2="BackgroundImageFix" result="effect1_dropShadow_0_308"/>
<feBlend mode="normal" in="SourceGraphic" in2="effect1_dropShadow_0_308" result="shape"/>
</filter>
</defs>
</svg>
