<svg width="68" height="16" viewBox="0 0 68 16" fill="none" xmlns="http://www.w3.org/2000/svg">
<path d="M19.8101 11.64C19.9001 11.7 20.0101 11.75 20.1401 11.78C20.2601 11.82 20.4001 11.84 20.5601 11.84C20.7601 11.84 20.9201 11.78 21.0401 11.66C21.1601 11.54 21.2401 11.38 21.2801 11.2L18.7401 5.82H20.4301L22.0601 9.68L23.4901 5.82H25.1001L22.8101 11.12C22.5101 11.82 22.2001 12.34 21.8601 12.67C21.5201 13.01 21.1501 13.18 20.7401 13.18C20.6001 13.18 20.4901 13.18 20.4001 13.16C20.3001 13.15 20.2201 13.13 20.1501 13.11L19.9601 13.05C19.9101 13.03 19.8601 13.01 19.8101 13V11.64ZM25.92 11.76C26 11.56 26.07 11.35 26.15 11.14C26.22 10.93 26.29 10.7 26.35 10.45C26.42 10.2 26.48 9.93 26.53 9.64C26.59 9.34 26.63 9.01 26.67 8.63C26.72 8.26 26.75 7.84 26.78 7.38C26.8 6.92 26.82 6.4 26.83 5.82H31.72V11.76H32.42V14.54H31.12V13H26.59V14.54H25.29V11.76H25.92ZM28.15 7.06C28.14 7.19 28.14 7.36 28.14 7.56C28.13 7.76 28.12 7.98 28.1 8.23C28.09 8.48 28.07 8.75 28.04 9.04C28 9.32 27.96 9.62 27.91 9.92C27.86 10.23 27.79 10.54 27.71 10.85C27.63 11.16 27.53 11.46 27.42 11.76H30.22V7.06H28.15ZM39.563 13H37.933L37.473 11.52H34.823L34.323 13H32.743L35.313 5.82H37.023L39.563 13ZM36.163 7.44H36.143L35.223 10.28H37.053L36.163 7.44ZM42.7898 8.14C42.7898 8.8 42.7798 9.37 42.7498 9.87C42.7098 10.37 42.6698 10.81 42.5998 11.17C42.5298 11.54 42.4498 11.86 42.3498 12.11C42.2498 12.36 42.1198 12.56 41.9798 12.71C41.8398 12.86 41.6798 12.97 41.4998 13.03C41.3198 13.1 41.1298 13.13 40.9098 13.13C40.7398 13.13 40.5798 13.12 40.4498 13.1C40.3098 13.08 40.1798 13.04 40.0398 12.99V11.61C40.0798 11.64 40.1298 11.65 40.1798 11.67C40.2298 11.68 40.2798 11.7 40.3298 11.7C40.3798 11.71 40.4198 11.72 40.4698 11.72C40.5098 11.73 40.5398 11.73 40.5598 11.73C40.6498 11.73 40.7298 11.71 40.8098 11.69C40.8798 11.66 40.9498 11.61 41.0098 11.53C41.0698 11.45 41.1298 11.33 41.1698 11.18C41.2198 11.03 41.2498 10.82 41.2898 10.57C41.3198 10.31 41.3398 10 41.3598 9.63C41.3698 9.25 41.3798 8.81 41.3798 8.28V5.82H46.3898V13H44.8898V7.06H42.7798L42.7898 8.14ZM49.1069 10.71H49.1269L51.9669 5.82H53.4869V13H52.0469V8.14H52.0269L49.1869 13H47.6669V5.82H49.1069V10.71ZM60.1837 7.06H57.9937V13H56.4937V7.06H54.3037V5.82H60.1837V7.06ZM62.6267 8.65H64.0567C64.1667 8.65 64.2967 8.65 64.4767 8.66C64.6367 8.66 64.8167 8.69 65.0067 8.73C65.1967 8.77 65.3967 8.83 65.5867 8.92C65.7767 9.01 65.9467 9.13 66.1067 9.29C66.2667 9.46 66.3867 9.66 66.4867 9.91C66.5867 10.16 66.6367 10.47 66.6367 10.83C66.6367 11.19 66.5867 11.5 66.4867 11.75C66.3867 11.99 66.2667 12.19 66.1167 12.36C65.9667 12.52 65.7967 12.64 65.6167 12.73C65.4267 12.81 65.2467 12.88 65.0767 12.92C64.8967 12.96 64.7367 12.99 64.5967 12.99C64.4567 13 64.3467 13 64.2767 13H61.1267V5.82H62.6267V8.65ZM63.8967 11.76C64.0367 11.76 64.1767 11.75 64.3167 11.73C64.4667 11.71 64.5967 11.67 64.7167 11.6C64.8467 11.54 64.9367 11.44 65.0167 11.31C65.0967 11.18 65.1367 11.01 65.1367 10.8C65.1367 10.57 65.0967 10.4 65.0267 10.27C64.9467 10.14 64.8467 10.04 64.7167 9.98C64.5967 9.91 64.4567 9.87 64.3067 9.86C64.1467 9.84 63.9967 9.83 63.8367 9.83H62.6267V11.76H63.8967Z" fill="#E53E3E"/>
<g clip-path="url(#clip0_0_166)">
<path d="M3.75 12.375C3.75 13.0625 4.3125 13.625 5 13.625H10C10.6875 13.625 11.25 13.0625 11.25 12.375V6.125C11.25 5.4375 10.6875 4.875 10 4.875H5C4.3125 4.875 3.75 5.4375 3.75 6.125V12.375ZM11.25 3H9.6875L9.24375 2.55625C9.13125 2.44375 8.96875 2.375 8.80625 2.375H6.19375C6.03125 2.375 5.86875 2.44375 5.75625 2.55625L5.3125 3H3.75C3.40625 3 3.125 3.28125 3.125 3.625C3.125 3.96875 3.40625 4.25 3.75 4.25H11.25C11.5937 4.25 11.875 3.96875 11.875 3.625C11.875 3.28125 11.5937 3 11.25 3Z" fill="#E53E3E"/>
</g>
<defs>
<clipPath id="clip0_0_166">
<rect width="15" height="15" fill="white" transform="translate(0 0.5)"/>
</clipPath>
</defs>
</svg>
