<svg width="75" height="75" viewBox="0 0 75 75" fill="none" xmlns="http://www.w3.org/2000/svg">
<g filter="url(#filter0_d_0_321)">
<rect x="5.50006" y="1.99997" width="64" height="64" rx="8" fill="#3182CE"/>
</g>
<path d="M29.3495 26.2788H45.5995C45.7894 26.2787 45.979 26.2907 46.1673 26.3148C46.1034 25.8668 45.9496 25.4364 45.7149 25.0494C45.4802 24.6625 45.1696 24.3271 44.8018 24.0635C44.434 23.7998 44.0166 23.6134 43.5748 23.5154C43.133 23.4175 42.676 23.41 42.2312 23.4934L28.8671 25.775H28.8519C28.013 25.9354 27.267 26.4101 26.7663 27.1019C27.5207 26.5653 28.4238 26.2776 29.3495 26.2788Z" fill="white"/>
<path d="M45.5997 27.4998H29.3497C28.4881 27.5007 27.662 27.8435 27.0527 28.4527C26.4434 29.062 26.1007 29.8881 26.0997 30.7498V40.4998C26.1007 41.3615 26.4434 42.1876 27.0527 42.7969C27.662 43.4061 28.4881 43.7489 29.3497 43.7498H45.5997C46.4614 43.7489 47.2875 43.4061 47.8968 42.7969C48.5061 42.1876 48.8488 41.3615 48.8497 40.4998V30.7498C48.8488 29.8881 48.5061 29.062 47.8968 28.4527C47.2875 27.8435 46.4614 27.5007 45.5997 27.4998ZM43.1876 37.2498C42.8662 37.2498 42.552 37.1545 42.2848 36.9759C42.0176 36.7974 41.8093 36.5436 41.6863 36.2467C41.5633 35.9497 41.5311 35.623 41.5938 35.3078C41.6565 34.9926 41.8113 34.703 42.0386 34.4757C42.2658 34.2485 42.5554 34.0937 42.8706 34.031C43.1858 33.9683 43.5125 34.0005 43.8095 34.1235C44.1064 34.2465 44.3602 34.4548 44.5388 34.722C44.7173 34.9892 44.8126 35.3034 44.8126 35.6248C44.8126 36.0558 44.6414 36.4691 44.3367 36.7738C44.0319 37.0786 43.6186 37.2498 43.1876 37.2498Z" fill="white"/>
<path d="M26.125 34.1749V29.1222C26.125 28.0218 26.7344 26.1769 28.8494 25.7772C30.6445 25.4405 32.4219 25.4405 32.4219 25.4405C32.4219 25.4405 33.5898 26.253 32.625 26.253C31.6602 26.253 31.6855 27.4972 32.625 27.4972C33.5645 27.4972 32.625 28.6905 32.625 28.6905L28.8418 32.9816L26.125 34.1749Z" fill="white"/>
<defs>
<filter id="filter0_d_0_321" x="6.10352e-05" y="-2.88486e-05" width="75" height="75" filterUnits="userSpaceOnUse" color-interpolation-filters="sRGB">
<feFlood flood-opacity="0" result="BackgroundImageFix"/>
<feColorMatrix in="SourceAlpha" type="matrix" values="0 0 0 0 0 0 0 0 0 0 0 0 0 0 0 0 0 0 127 0" result="hardAlpha"/>
<feOffset dy="3.5"/>
<feGaussianBlur stdDeviation="2.75"/>
<feColorMatrix type="matrix" values="0 0 0 0 0 0 0 0 0 0 0 0 0 0 0 0 0 0 0.02 0"/>
<feBlend mode="normal" in2="BackgroundImageFix" result="effect1_dropShadow_0_321"/>
<feBlend mode="normal" in="SourceGraphic" in2="effect1_dropShadow_0_321" result="shape"/>
</filter>
</defs>
</svg>
